<svg width="20" height="20" viewBox="0 0 20 20" fill="none" xmlns="http://www.w3.org/2000/svg">
<path d="M19.8371 4.09803C19.9415 3.9937 20 3.8521 20 3.70445V0.5566C20 0.249188 19.751 0.000155258 19.4436 0.000155258H16.2961C16.1483 0.000155258 16.0071 0.0586893 15.9026 0.163023L9.99992 6.06611L4.09726 0.163023C3.99293 0.0586893 3.85135 0.000155258 3.70371 0.000155258L0.556405 0C0.249015 0 0 0.249033 0 0.556445V3.70414C0 3.85194 0.0585299 3.99323 0.162856 4.09771L6.06552 10.0008L3.87265 12.1938L3.4791 11.8003C3.16395 11.4849 2.74464 11.3112 2.29892 11.3112C1.85304 11.3112 1.43403 11.4848 1.11875 11.8003C0.803441 12.1156 0.629707 12.5348 0.629707 12.9805C0.629707 13.4264 0.803274 13.8455 1.11875 14.1608L2.29924 15.341L0.489056 17.1514C-0.161739 17.8022 -0.161739 18.8612 0.489056 19.5122C0.814454 19.8373 1.24171 20 1.66923 20C2.09679 20 2.52435 19.8373 2.84941 19.5119L4.65927 17.7017L5.83976 18.8823C6.15492 19.1976 6.57422 19.3714 7.01994 19.3714C7.46582 19.3714 7.88499 19.1979 8.20011 18.8823C8.51542 18.5671 8.68915 18.1478 8.68915 17.702C8.68915 17.2561 8.51559 16.8371 8.20011 16.5218L7.80656 16.1282L9.99944 13.9352L12.1926 16.1285L11.7994 16.5218C11.4841 16.837 11.3103 17.2563 11.3103 17.702C11.3103 18.148 11.4839 18.567 11.7994 18.8823C12.1145 19.1976 12.5338 19.3714 12.9796 19.3714C13.4256 19.3714 13.8446 19.198 14.1597 18.8826L15.3402 17.702L17.1501 19.5122C17.4755 19.8376 17.9028 20 18.3303 20C18.7577 20 19.1851 19.8373 19.5104 19.5122C19.8257 19.197 19.9995 18.7777 19.9995 18.3319C19.9995 17.886 19.8259 17.467 19.5104 17.1517L17.7004 15.3415L18.8809 14.1609C19.1962 13.8458 19.37 13.4264 19.37 12.9807C19.37 12.5348 19.1964 12.1157 18.8809 11.8004C18.5656 11.4851 18.1465 11.3113 17.7007 11.3113C17.2549 11.3113 16.8358 11.4849 16.5206 11.8004L16.127 12.194L13.9343 10.001L19.8371 4.09803ZM16.5265 1.11302H18.887V3.47386L13.1477 9.21359L10.7872 6.85287L16.5265 1.11302ZM2.06275 18.7253C1.84571 18.9425 1.49251 18.9424 1.27579 18.7253C1.17069 18.6202 1.11294 18.4805 1.11294 18.332C1.11294 18.1833 1.17084 18.0436 1.27579 17.9385L3.08566 16.1283L3.87261 16.9153L2.06275 18.7253ZM7.41338 18.096C7.20333 18.3061 6.83646 18.3061 6.62642 18.096L5.05362 16.5231C5.05316 16.5227 5.053 16.5222 5.05269 16.522C5.05254 16.5219 5.05176 16.5214 5.05161 16.5211L1.90522 13.3745C1.80011 13.2694 1.74236 13.1297 1.74236 12.9809C1.74236 12.8322 1.79996 12.6924 1.90522 12.5873C2.01047 12.4822 2.1502 12.4245 2.29876 12.4245C2.44749 12.4245 2.58721 12.4821 2.69247 12.5873L6.62673 16.5219V16.522C6.62673 16.5222 6.62673 16.522 6.62688 16.522L7.41336 17.3089C7.51846 17.414 7.57622 17.5537 7.57622 17.7025C7.57622 17.8512 7.51831 17.9911 7.41336 18.096L7.41338 18.096ZM7.02029 15.3419L4.65931 12.9808L6.85218 10.7877L9.21285 13.1486L7.02029 15.3419ZM18.7243 17.9388C18.9413 18.1558 18.941 18.509 18.7243 18.7258C18.5075 18.9425 18.1544 18.9425 17.9373 18.7258L16.1275 16.9156L16.9144 16.1286L18.7243 17.9388ZM17.7014 12.4248C17.8498 12.4248 17.9897 12.4822 18.0946 12.5875C18.1997 12.6928 18.2575 12.8325 18.2575 12.9811C18.2575 13.1298 18.1996 13.2696 18.0946 13.3747L13.3735 18.0961C13.1635 18.3062 12.7966 18.3062 12.5865 18.0961C12.4814 17.991 12.4237 17.8513 12.4237 17.7025C12.4237 17.5538 12.4816 17.4141 12.5865 17.3089L17.308 12.5875C17.4131 12.4826 17.5529 12.4248 17.7016 12.4248H17.7014ZM12.9799 15.3418L1.11294 3.47401L1.1131 1.1133H3.47376L15.3407 12.9811L12.9799 15.3418Z" fill="black"/>
</svg>
