<svg width="169" height="118" viewBox="0 0 169 118" fill="none" xmlns="http://www.w3.org/2000/svg">
<path d="M37.3394 0C27.5945 0 19.654 7.94846 19.654 17.6992C19.654 27.4518 27.5962 35.3985 37.3394 35.3985C47.0843 35.3985 55.0248 27.45 55.0248 17.6992C55.0248 7.94671 47.0825 0 37.3394 0ZM131.665 0C121.92 0 113.98 7.94846 113.98 17.6992C113.98 27.4518 121.922 35.3985 131.665 35.3985C141.41 35.3985 149.351 27.45 149.351 17.6992C149.351 7.94671 141.408 0 131.665 0ZM37.3394 3.93297C44.9595 3.93297 51.0949 10.0732 51.0949 17.6992C51.0949 25.3253 44.9595 31.4655 37.3394 31.4655C29.7193 31.4655 23.5839 25.3253 23.5839 17.6992C23.5839 10.0732 29.7193 3.93297 37.3394 3.93297V3.93297ZM131.665 3.93297C139.285 3.93297 145.421 10.0732 145.421 17.6992C145.421 25.3253 139.285 31.4655 131.665 31.4655C124.045 31.4655 117.91 25.3253 117.91 17.6992C117.91 10.0732 124.045 3.93297 131.665 3.93297V3.93297ZM84.5023 7.86593C73.672 7.86593 64.8511 16.6938 64.8511 27.5325C64.8511 38.3713 73.672 47.1991 84.5023 47.1991C95.3326 47.1991 104.154 38.3713 104.154 27.5325C104.154 16.6938 95.3326 7.86593 84.5023 7.86593ZM84.5023 11.7989C93.2082 11.7989 100.224 18.8199 100.224 27.5325C100.224 36.2452 93.2082 43.2662 84.5023 43.2662C75.7965 43.2662 68.781 36.2452 68.781 27.5325C68.781 18.8199 75.7965 11.7989 84.5023 11.7989V11.7989ZM41.2696 49.1654C30.0527 49.1654 19.8119 51.9777 12.2834 57.3387C4.75486 62.6996 0.00137076 70.7499 0.00137076 80.6309V102.265L0 102.268C0 103.353 0.880024 104.233 1.96568 104.233H41.2681V116.034C41.2681 117.121 42.1481 118 43.2324 118H125.768C126.852 118 127.732 117.121 127.732 116.034V104.233H167.034C168.12 104.233 169 103.353 169 102.268V80.6337C169 70.7523 164.246 62.7023 156.718 57.3414C149.19 51.9805 138.949 49.1682 127.732 49.1682C112.774 49.1682 99.5393 54.1575 92.2367 63.549C89.72 63.1786 87.1414 62.9344 84.4987 62.9344C81.856 62.9344 79.2774 63.1786 76.7607 63.549C69.4585 54.1561 56.2241 49.1668 41.2657 49.1668L41.2696 49.1654ZM41.2696 53.0984C54.4181 53.0984 65.7582 57.2702 72.3435 64.4063C54.4812 68.674 41.2682 82.0399 41.2682 98.333V100.3H3.93092V80.6336C3.93092 71.9936 7.93625 65.2951 14.6159 60.5361C21.2956 55.7785 30.7113 53.0993 41.2675 53.0993L41.2696 53.0984ZM127.735 53.0984C138.291 53.0984 147.707 55.7776 154.387 60.5352C161.066 65.2928 165.072 71.9927 165.072 80.6327V100.299H127.734V98.3321C127.734 82.0386 114.522 68.6731 96.6605 64.4065C103.246 57.2703 114.584 53.0985 127.734 53.0985L127.735 53.0984ZM84.5023 66.8647C106.511 66.8647 123.805 81.1124 123.805 98.3319V114.066H45.1999V98.3319C45.1999 81.1142 62.4933 66.8647 84.5023 66.8647V66.8647Z" fill="black"/>
</svg>
