<svg width="33" height="40" viewBox="0 0 33 40" fill="none" xmlns="http://www.w3.org/2000/svg">
<path d="M4.10271 37.988C4.10399 37.3398 4.14837 36.6931 4.23584 36.051C4.21172 36.2243 4.18792 36.3979 4.16381 36.5712C4.33069 35.3862 4.64679 34.229 5.10563 33.1241C5.03907 33.2836 4.9725 33.4428 4.90594 33.6023C5.36706 32.5058 5.96391 31.4729 6.6829 30.5252C6.57807 30.6625 6.47356 30.7998 6.36873 30.9371C7.11058 29.9677 7.97331 29.0978 8.93638 28.3476C8.7981 28.455 8.65983 28.5627 8.52188 28.6701C9.49457 27.9193 10.5596 27.2977 11.6925 26.8211C11.5253 26.8909 11.3581 26.9607 11.1912 27.0305C12.3344 26.5555 13.5338 26.234 14.7612 26.0722C14.5814 26.0953 14.402 26.1185 14.2222 26.1416C15.4683 25.9828 16.7295 25.9883 17.9739 26.158C17.8006 26.1339 17.6269 26.1101 17.4536 26.086C18.6386 26.2529 19.7959 26.569 20.9008 27.0278C20.7416 26.9613 20.5821 26.8947 20.4226 26.8281C21.5191 27.2893 22.552 27.8861 23.4996 28.6051C23.3623 28.5003 23.225 28.3958 23.0877 28.2909C24.0572 29.0328 24.9271 29.8955 25.6773 30.8586C25.5699 30.7203 25.4621 30.582 25.3547 30.4441C26.1056 31.4168 26.7272 32.4818 27.2037 33.6147C27.1339 33.4475 27.0642 33.2803 26.9944 33.1134C27.4693 34.2566 27.7909 35.456 27.9527 36.6834C27.9295 36.5036 27.9064 36.3242 27.8832 36.1444C27.9601 36.7464 27.9986 37.3519 27.9999 37.959C28.0025 39.0626 28.9006 39.9926 30.0117 40C31.1078 40.0074 32.0549 39.0919 32.0526 37.9883C32.0427 33.4758 30.1011 29.045 26.7134 26.0461C24.9896 24.52 22.9798 23.382 20.7851 22.6861C19.6638 22.3308 18.4936 22.1353 17.3241 22.0282C16.1118 21.9172 14.9162 21.9999 13.7126 22.1584C11.5707 22.4411 9.46739 23.2241 7.63412 24.3634C5.68412 25.5754 4.05641 27.187 2.75855 29.0736C0.982906 31.6548 0.0571338 34.835 0.0500543 37.9584C0.0474818 39.062 0.954587 39.992 2.06179 39.9994C3.16151 40.0068 4.1002 39.0917 4.10275 37.9877L4.10271 37.988Z" fill="black"/>
<path d="M21.725 10.6174C21.7237 10.9724 21.6996 11.3255 21.6526 11.6773C21.6767 11.504 21.7005 11.3303 21.7246 11.157C21.6308 11.8188 21.4545 12.4628 21.1979 13.0799C21.2645 12.9204 21.3311 12.7612 21.3976 12.6017C21.142 13.2031 20.8143 13.7677 20.4194 14.2883C20.5242 14.151 20.6288 14.0137 20.7336 13.8761C20.3255 14.406 19.8547 14.8803 19.328 15.2922C19.4663 15.1848 19.6046 15.0771 19.7425 14.9697C19.2091 15.3803 18.6287 15.7202 18.0093 15.9835C18.1765 15.9138 18.3437 15.844 18.5106 15.7742C17.8742 16.0388 17.2095 16.218 16.5263 16.3093C16.706 16.2861 16.8855 16.263 17.0652 16.2398C16.3806 16.3257 15.6906 16.3231 15.0066 16.2318C15.1799 16.2559 15.3535 16.2797 15.5269 16.3038C14.8651 16.2099 14.221 16.0337 13.6039 15.7768C13.7634 15.8433 13.9226 15.9099 14.0821 15.9765C13.4808 15.7208 12.9161 15.3932 12.3955 14.9983C12.5328 15.1031 12.6701 15.2076 12.8078 15.3124C12.2778 14.9044 11.8036 14.4336 11.3916 13.9069C11.499 14.0452 11.6068 14.1831 11.7142 14.3214C11.3035 13.7879 10.9636 13.2075 10.7003 12.5881C10.7701 12.7554 10.8399 12.9226 10.9096 13.0895C10.645 12.4531 10.4659 11.7884 10.3746 11.1051C10.3977 11.2849 10.4209 11.4643 10.444 11.6441C10.3582 10.9595 10.3607 10.2694 10.4521 9.58542C10.4279 9.75874 10.4041 9.93238 10.38 10.1057C10.4739 9.44393 10.6501 8.79986 10.9067 8.18246C10.8402 8.34196 10.7736 8.50113 10.707 8.66063C10.9627 8.0593 11.2904 7.49464 11.6853 6.97405C11.5804 7.11136 11.4759 7.24866 11.3711 7.38597C11.7792 6.85604 12.2499 6.38175 12.7766 5.96982C12.6384 6.07723 12.5001 6.18495 12.3621 6.29235C12.8956 5.88172 13.476 5.54182 14.0954 5.2785C13.9282 5.34828 13.761 5.41806 13.5941 5.48784C14.2304 5.2232 14.8951 5.04408 15.5784 4.95276C15.3986 4.97591 15.2192 4.99906 15.0394 5.02222C15.7241 4.93636 16.4141 4.93893 17.0984 5.03025C16.9251 5.00614 16.7515 4.98234 16.5781 4.95822C17.2399 5.05212 17.884 5.22833 18.5014 5.48494C18.3422 5.41838 18.1827 5.35181 18.0232 5.28525C18.6246 5.54089 19.1892 5.86856 19.7098 6.26346C19.5725 6.15863 19.4352 6.05412 19.2979 5.94929C19.8278 6.35735 20.3021 6.82814 20.714 7.35482C20.6066 7.21655 20.4989 7.0786 20.3915 6.94033C20.8021 7.4738 21.142 8.0542 21.4054 8.67357C21.3356 8.50637 21.2658 8.33915 21.196 8.17226C21.4607 8.80864 21.6398 9.47366 21.7311 10.1566C21.7079 9.97683 21.6848 9.7974 21.6616 9.61765C21.7022 9.95047 21.7234 10.2833 21.725 10.6174C21.7295 11.721 22.6244 12.651 23.7367 12.6584C24.8313 12.6658 25.7822 11.7503 25.7777 10.6466C25.7674 8.12724 24.7882 5.72613 23.065 3.89509C21.3636 2.08693 18.9664 1.06789 16.508 0.919052C15.3356 0.847986 14.1024 1.02131 12.9921 1.40364C11.7261 1.83969 10.6411 2.4822 9.62147 3.34426C8.7632 4.0697 8.0378 5.00548 7.50494 5.992C6.86567 7.17568 6.53159 8.41534 6.37592 9.74209C6.23829 10.9158 6.37431 12.1577 6.69587 13.2908C7.00779 14.3902 7.52039 15.4674 8.21879 16.3746C8.61624 16.8907 9.01852 17.3837 9.50373 17.8201C9.98061 18.249 10.5044 18.6397 11.0518 18.9744C12.0248 19.57 13.1484 19.9989 14.2744 20.1864C15.6308 20.4122 16.952 20.3977 18.2995 20.0951C19.4146 19.8449 20.5205 19.3581 21.4617 18.7102C23.4782 17.3223 24.9857 15.2357 25.5253 12.831C25.6851 12.1191 25.7745 11.3776 25.7774 10.6473C25.7819 9.54375 24.8715 8.61378 23.7656 8.60637C22.6643 8.59865 21.7292 9.51378 21.725 10.6174L21.725 10.6174Z" fill="black"/>
</svg>
